<svg xmlns="http://www.w3.org/2000/svg" viewBox="0 0 24 24" version="1.1">
  <path d="M11.76 1.000968C8.154912000000001 1.0795919999999999 4.790904 2.9382 2.8206 5.94C1.78464 7.518336000000001 1.190496 9.243984 1.0316400000000001 11.136000000000001C0.99924 11.521872 0.9993360000000001 12.477839999999999 1.031784 12.864C1.2546 15.514296 2.36928 17.928144 4.2236400000000005 19.776C5.99676 21.542856 8.250096000000001 22.632792000000002 10.752 22.933752C11.191848 22.986672000000002 12.351263999999999 23.006520000000002 12.836231999999999 22.96944C14.826528000000001 22.81728 16.759680000000003 22.116672 18.378192000000002 20.96088C18.619464 20.788584 18.72588 20.695536 18.805848 20.586912C19.106136000000003 20.179008 19.04916 19.610184 18.673584 19.266503999999998C18.488136 19.0968 18.326328 19.029192000000002 18.069144 19.013952000000003C17.772696 18.996384 17.651808 19.032336 17.377464 19.21956C16.675128 19.698888 16.415544 19.854024 15.904704 20.099736C14.945856000000001 20.560944 13.988015999999998 20.832432 12.888 20.95476C12.5292 20.994672 11.518944000000001 20.995176 11.136000000000001 20.955648C10.315752 20.870976000000002 9.560184 20.692848 8.808 20.406816C4.8694560000000005 18.909144 2.498472 14.885328 3.0978239999999997 10.716000000000001C3.47928 8.06232 5.038152 5.702688 7.325808 4.31616C9.706224 2.873424 12.599784 2.607456 15.192 3.5931840000000004C16.95936 4.265232 18.453936 5.461488 19.506096 7.0461599999999995C20.191992 8.079191999999999 20.661072 9.268944000000001 20.86788 10.5C20.972448 11.122584 20.988 11.363280000000001 20.988 12.36C20.988 13.453008 20.984568 13.478184 20.779152 13.896C20.667816000000002 14.122392 20.629464000000002 14.173775999999998 20.401608 14.401608000000001C20.173776 14.629464 20.122392 14.667816 19.896 14.779152C19.552296 14.948136000000002 19.384608 14.985912 18.984 14.984592C18.703656 14.983656 18.631512 14.974872 18.448632 14.919456C18.07884 14.807424000000001 17.805912 14.640168 17.554872 14.371800000000002C17.293992 14.092920000000001 17.152055999999998 13.837128000000002 17.05932 13.478736000000001C17.009856000000003 13.287648 17.008728 13.23264 16.998792 10.538424000000001C16.989024 7.8894720000000005 16.987008 7.788456 16.941912000000002 7.667904C16.84056 7.397016 16.66788 7.211016 16.40232 7.086647999999999C16.273775999999998 7.0264560000000005 16.234464000000003 7.0200000000000005 15.996 7.0200000000000005C15.760968 7.0200000000000005 15.717504 7.026888 15.6 7.082736C15.42924 7.163928 15.3 7.269311999999999 15.187272 7.419336C15.095040000000001 7.542096000000001 15 7.797312 15 7.922280000000001L15 7.991496 14.766 7.833768C14.153088 7.4206319999999995 13.360104000000002 7.127447999999999 12.600624 7.033224C12.338808 7.000751999999999 11.661192 7.000751999999999 11.399376 7.033224C9.938616 7.214472000000001 8.640504 8.019312 7.820808 9.252C7.412928000000001 9.865392 7.126752 10.64568 7.033224 11.399376C7.000751999999999 11.661192 7.000751999999999 12.338808 7.033224 12.600624C7.174368 13.738272 7.6908 14.777472 8.513496 15.579384C9.304392 16.350312000000002 10.303992000000001 16.830864 11.399376 16.966776C11.511216000000001 16.980648000000002 11.781504 16.992 12 16.992C12.218496 16.992 12.488784 16.980648000000002 12.600624 16.966776C13.693536 16.831176 14.695872 16.350072 15.482111999999999 15.583680000000001C15.621863999999999 15.447456 15.741912000000001 15.336 15.748920000000002 15.336C15.755904 15.336 15.791568 15.38124 15.828144 15.436512C15.928296 15.587856 16.307136000000003 15.970656 16.524 16.139664C17.024496000000003 16.529712 17.5734 16.784928 18.204 16.920792000000002C18.54336 16.993896 19.20864 17.011992 19.572 16.958016C20.445312 16.828224000000002 21.204384 16.446816000000002 21.8256 15.8256C22.443072 15.208128 22.826184 14.448383999999999 22.956048 13.58376C22.999008 13.297656 23.006952000000002 11.646023999999999 22.967760000000002 11.14548C22.726056 8.058048000000001 21.186456 5.199048 18.75132 3.315648C17.948664 2.694864 16.96596 2.129928 16.080000000000002 1.779984C14.718816 1.242312 13.20564 0.969456 11.76 1.000968M11.642376 9.026832C10.746936 9.130656 9.91536 9.668664 9.440448 10.451376C8.682312 11.700887999999999 8.94516 13.328304000000001 10.058184 14.276136000000001C11.177664 15.229439999999999 12.822336 15.229439999999999 13.941816 14.276136000000001C14.815752 13.531896 15.187560000000001 12.33948 14.890968 11.232000000000001C14.504591999999999 9.789264000000001 13.127664 8.854584 11.642376 9.026832" stroke="none" fill="#000000" fill-rule="evenodd" stroke-width="0.024"></path>
</svg>