<svg xmlns="http://www.w3.org/2000/svg" viewBox="0 0 24 24" version="1.1">
  <path d="M15.012 0.976176C14.062632 1.05636 13.220040000000001 1.2727920000000001 12.409104000000001 1.644792C12.02688 1.820112 11.78112 1.958424 11.384424000000001 2.2214400000000003C9.646583999999999 3.3736080000000004 8.478624 5.180112 8.135928 7.245912000000001C8.058096 7.715016 8.032295999999999 8.133264 8.047704000000001 8.676C8.063112 9.218904 8.098392 9.531888 8.198832 10.016568000000001L8.262792000000001 10.32516 4.733808 13.856568C2.7928800000000003 15.798863999999998 1.17852 17.4312 1.14636 17.484C1.004184 17.7174 1.008 17.660616 1.008 19.53816C1.008 21.37632 1.011384 21.438456000000002 1.129176 21.756C1.365216 22.392312 1.941552 22.861608 2.616 22.966632C2.746344 22.986936 3.4118880000000003 22.992648000000003 5.0280000000000005 22.987344L7.26 22.98 7.4174880000000005 22.905383999999998C7.6223279999999995 22.808304 7.808304000000001 22.622328 7.905384000000001 22.417488000000002L7.98 22.26 7.992 21.132L8.004 20.004 9.132 19.992L10.26 19.98 10.417488 19.905383999999998C10.622328 19.808304 10.808304 19.622328 10.905384000000002 19.417488000000002L10.98 19.26 10.992 18.132L11.004 17.004 11.628 16.991304C12.28404 16.97796 12.321072000000001 16.972224 12.516 16.853496C12.568800000000001 16.821336000000002 12.851208 16.557024 13.143552000000001 16.266144L13.675128 15.73728 13.983552000000001 15.801192000000002C14.882376 15.987456 15.874632 16.009968 16.754088 15.864072000000002C17.820024 15.687240000000001 18.792936 15.303456 19.692 14.705136000000001C21.30396 13.632384 22.436112 11.984928 22.858439999999998 10.0974C23.185176 8.637096000000001 23.061216 7.078752 22.507704 5.688C22.261728 5.069928000000001 21.814728 4.294656 21.421464 3.8040000000000003C21.1068 3.4114079999999998 20.588592 2.8931999999999998 20.196 2.5785359999999997C19.656959999999998 2.146488 18.747024 1.639944 18.084 1.402824C17.500968 1.194288 16.808952 1.044696 16.152 0.985176C15.89796 0.9621600000000001 15.239568 0.9569519999999999 15.012 0.976176M14.808 3.014544C13.836696 3.14412 12.840384 3.578712 12.0558 4.21512C11.619528 4.568976 11.13888 5.120952 10.853712 5.5956C10.310616 6.49956 10.052952 7.417944 10.053408 8.448C10.053696 9.081144 10.1112 9.469896 10.299096 10.108824C10.388976000000001 10.414463999999999 10.396776000000001 10.462392 10.387344 10.652016C10.379376 10.812576 10.361400000000001 10.895568 10.3086 11.016C10.243176 11.165136 10.081128000000001 11.33124 6.620088 14.796263999999999L3 18.420528 3 19.710264L3 21 4.498896 21L5.997792 21 6.0048960000000005 19.878L6.0120000000000005 18.756 6.08844 18.594648000000003C6.194640000000001 18.37044 6.351384 18.210744 6.572520000000001 18.101424L6.753408 18.012 7.8755999999999995 18.004896L8.997792 17.997792 9.004896 16.8756L9.012 15.753408000000002 9.101424 15.57252C9.210744 15.351384 9.37044 15.194640000000001 9.594648 15.088439999999999L9.756 15.012 10.668000000000001 15.005040000000001L11.58 14.99808 12.18 14.402472C12.51 14.074895999999999 12.8124 13.785264 12.852 13.75884C13.114680000000002 13.583544 13.430760000000001 13.5624 13.85688 13.691568C14.4738 13.878552 14.922936 13.946616 15.540000000000001 13.946616C16.14204 13.946616 16.602 13.878912 17.16 13.708152C18.543120000000002 13.284863999999999 19.720872 12.305280000000002 20.396784 11.016C20.661 10.512 20.853047999999998 9.95076 20.953008 9.390504C21.01752 9.02892 21.041856000000003 8.300904 21.002232 7.917408C20.894712000000002 6.8766240000000005 20.509944 5.911728 19.873968 5.088C19.671672 4.825968 19.174032 4.328328 18.912 4.126032C18.121944 3.5160480000000005 17.220096 3.143568 16.216776 3.0128880000000002C15.8664 2.967264 15.156312000000002 2.96808 14.808 3.014544M16.152 6.037296C15.626544 6.150023999999999 15.146640000000001 6.634512 15.035952000000002 7.164000000000001C14.924712000000001 7.6961759999999995 15.066024 8.178936 15.443544000000001 8.556456C15.821064 8.933976000000001 16.303824000000002 9.075288 16.836000000000002 8.964048C17.371512 8.852112 17.852111999999998 8.371512 17.964048 7.836C18.075288 7.3038240000000005 17.933976 6.821064000000001 17.556456 6.443544C17.178456 6.065544 16.685256000000003 5.922864000000001 16.152 6.037296" stroke="none" fill="#000000" fill-rule="evenodd" stroke-width="0.024"></path>
</svg>